<mxfile host="Electron" modified="2024-12-23T04:53:25.035Z" agent="Mozilla/5.0 (Windows NT 10.0; Win64; x64) AppleWebKit/537.36 (KHTML, like Gecko) draw.io/22.1.2 Chrome/114.0.5735.289 Electron/25.9.4 Safari/537.36" etag="RkiAqQemKrl7PrHYZsqB" version="22.1.2" type="device">
  <diagram name="Page-1" id="inI-zfQGe_h-Fc5cpdxK">
    <mxGraphModel dx="1418" dy="948" grid="1" gridSize="10" guides="1" tooltips="1" connect="1" arrows="1" fold="1" page="1" pageScale="1" pageWidth="850" pageHeight="1100" math="0" shadow="0">
      <root>
        <mxCell id="0" />
        <mxCell id="1" parent="0" />
        <mxCell id="DJghPm9ncT1MCjUbAgXX-1" value="&lt;b&gt;&lt;font style=&quot;font-size: 18px;&quot;&gt;IDLE&lt;/font&gt;&lt;/b&gt;&lt;br&gt;- Detecting modules joining/leaving the bus&lt;br&gt;- Receiving input from PC" style="rounded=0;whiteSpace=wrap;html=1;" vertex="1" parent="1">
          <mxGeometry x="120" y="280" width="260" height="70" as="geometry" />
        </mxCell>
        <mxCell id="DJghPm9ncT1MCjUbAgXX-2" value="&lt;span style=&quot;font-size: 18px;&quot;&gt;&lt;b&gt;SETUP&lt;/b&gt;&lt;/span&gt;&lt;br&gt;- Confirming all modules have current config info" style="rounded=0;whiteSpace=wrap;html=1;" vertex="1" parent="1">
          <mxGeometry x="120" y="400" width="260" height="70" as="geometry" />
        </mxCell>
        <mxCell id="DJghPm9ncT1MCjUbAgXX-3" value="&lt;span style=&quot;font-size: 18px;&quot;&gt;&lt;b&gt;OPERATING&lt;/b&gt;&lt;/span&gt;&lt;br&gt;- Scanning status registers of all modules&lt;br&gt;Game ends when all are solved or 3 strikes" style="rounded=0;whiteSpace=wrap;html=1;" vertex="1" parent="1">
          <mxGeometry x="120" y="520" width="260" height="70" as="geometry" />
        </mxCell>
      </root>
    </mxGraphModel>
  </diagram>
</mxfile>
